<svg width="147" height="59" viewBox="0 0 147 59" fill="none" xmlns="http://www.w3.org/2000/svg">
<g clip-path="url(#clip0_5_84)">
<path d="M35.2728 14.1607H29.1109C25.7137 14.1607 21.8106 17.1343 20.4192 20.7787L16.4438 31.2769H28.7856L35.2728 14.2151L35.3089 14.1789L35.2728 14.1607ZM5.90891 58.9275V58.9637H12.0708C15.468 58.9637 19.3711 55.9902 20.7625 52.3457L27.8821 33.634H15.5403L5.92698 58.9275H5.90891Z" fill="#034EA2"/>
<path d="M79.2915 0C77.1592 1.05163 65.8473 5.87462 44.109 2.95544C35.3089 1.77689 32.6707 0 23.5272 0C14.3838 0 5.42102 2.3571 0 11.6767L0.10842 11.7855C1.55403 11.1146 7.31838 8.70313 17.6364 8.70313C29.8337 8.70313 34.8391 11.7855 47.0364 11.7855C59.2337 11.7855 70.2926 9.66411 79.3818 0.108789L79.2915 0Z" fill="#034EA2"/>
<path d="M45.5366 31.2769L47.0545 27.1429H47.976C51.1564 26.8891 55.457 27.3967 56.5593 24.1331C57.8062 20.4161 48.0483 20.0716 45.7896 25.5655H35.0559C37.0256 20.815 43.0429 14.5778 54.5535 14.5778C68.07 14.5778 68.2326 20.4705 67.311 23.843C64.8896 30.6242 58.2218 31.2588 52.5478 31.2588H45.5004L45.5366 31.2769Z" fill="#034EA2"/>
<path d="M51.4816 36.9521C50.8492 38.8559 48.2832 40.9229 44.2536 40.0707C39.7903 39.1278 41.1636 35.6466 42.0491 33.634H30.8456C29.6349 36.8614 28.2074 42.4278 33.0321 45.4376C36.2305 47.4321 40.7661 48.1755 48.9699 47.142C51.2648 46.8519 54.68 45.8365 57.8965 43.842C60.4986 42.2283 63.8777 38.2394 63.4621 33.634H50.0902C51.3913 34.5224 52.0057 35.4471 51.4997 36.9521H51.4816Z" fill="#034EA2"/>
<path d="M82.5621 31.2769L83.8813 27.1429H84.8932C92.7717 27.1429 93.5307 25.783 93.9282 24.9852C94.8317 23.154 94.3438 21.087 90.3684 21.232C86.3749 21.3771 82.8332 23.3171 81.0081 26.7621C80.1408 28.2489 79.7432 29.2099 79.0385 31.2588H66.9677C67.04 30.9505 67.3472 30.0621 67.4194 29.7357C73.5633 15.3937 87.3688 14.469 91.7237 14.614C98.3735 14.8135 106.884 16.8805 105.71 25.2028C105.132 30.0983 99.3854 31.2769 93.1151 31.2769H82.5621Z" fill="#F37021"/>
<path d="M83.3392 40.2157C78.4422 40.2157 77.8278 37.3328 78.4422 33.634H66.5701C64.8716 45.4376 73.4548 47.5046 82.526 47.5046C93.6572 46.8881 100.325 40.8141 103.74 33.634H92.591C91.4888 35.8098 88.0554 40.2157 83.3211 40.2157H83.3392Z" fill="#F37021"/>
<path d="M127.412 31.2769L147 8.84819H139.067C136.808 8.84819 133.682 10.1899 132.11 11.8399L121.16 23.6435L115.775 15.9195H105.764L115.883 31.2588H127.412V31.2769ZM99.3492 47.2145H108.059C110.968 47.2145 114.944 45.4376 116.913 43.28L120.871 38.7833L126.436 47.2145H137.622L128.135 33.6521H111.944L99.3673 47.2326L99.3492 47.2145Z" fill="#F37021"/>
</g>
<defs>
<clipPath id="clip0_5_84">
<rect width="147" height="59" fill="white"/>
</clipPath>
</defs>
</svg>
